<?xml version="1.0" encoding="UTF-8"?>
<!DOCTYPE svg PUBLIC "-//W3C//DTD SVG 1.1//EN" "http://www.w3.org/Graphics/SVG/1.1/DTD/svg11.dtd">
<!-- Creator: CorelDRAW 2021 (64-Bit) -->
<svg xmlns="http://www.w3.org/2000/svg" xml:space="preserve" width="211.666mm" height="18.3015mm" version="1.1" style="shape-rendering:geometricPrecision; text-rendering:geometricPrecision; image-rendering:optimizeQuality; fill-rule:evenodd; clip-rule:evenodd"
viewBox="0 0 8668.2 749.49"
 xmlns:xlink="http://www.w3.org/1999/xlink"
 xmlns:xodm="http://www.corel.com/coreldraw/odm/2003">
 <defs>
  <style type="text/css">
   <![CDATA[
    .fil0 {fill:#01C8FF}
    .fil1 {fill:#1226AA}
    .fil2 {fill:white;fill-rule:nonzero}
   ]]>
  </style>
 </defs>
 <g id="Capa_x0020_1">
  <metadata id="CorelCorpID_0Corel-Layer"/>
  <path class="fil0" d="M158.8 0l1614.37 0 0 749.49 -1773.16 0 0 -590.69c0,-87.34 71.46,-158.8 158.8,-158.8z"/>
  <path class="fil1" d="M1668.18 0l6841.22 0c87.34,0 158.8,71.46 158.8,158.8l0 590.69 -7000.03 0c-58.55,-112.08 -91.7,-239.53 -91.7,-374.74 0,-135.21 33.15,-262.66 91.71,-374.75z"/>
  <g id="_2397916398288">
   <g>
    <path class="fil2" d="M7481.69 465.32c57.75,1.94 101.3,-29.75 104.03,-75.45 2.53,-50.16 -47.64,-61.25 -87.69,-70.19l-0.78 2.92 0.78 -2.92c-27.61,-6.22 -51.33,-11.47 -50.36,-25.86 0.78,-12.83 16.92,-22.16 36.75,-21.58 24.31,0.78 42.19,11.47 44.52,26.25 0.59,2.53 3.7,2.53 5.06,1.56 1.56,-0.78 43.94,-24.31 43.94,-24.31 1.36,-0.78 1.95,-2.53 1.36,-3.89 -13.61,-29.75 -48.61,-49.19 -91.58,-50.56 -52.69,-1.75 -94.11,28.58 -96.64,70.97 -3.11,56.19 47.83,66.5 88.86,75.05 30.53,6.22 49,11.08 48.41,24.5 -0.78,14 -19.44,23.92 -43.55,22.95 -23.33,-0.78 -41.03,-12.25 -45.11,-29.36 -0.19,-0.97 -0.78,-1.55 -1.75,-1.94 -0.78,-0.39 -1.75,-0.39 -2.53,0.19l-44.14 24.5c-1.36,0.78 -1.95,2.53 -1.36,3.89 14.39,31.89 48.61,51.72 91.78,53.28z"/>
    <g>
     <path class="fil2" d="M8070.46 296.35c-21.2,-21 -50.94,-32.67 -83.8,-32.67 -68.05,0 -117.44,48.61 -117.44,115.69 0,69.81 49.97,120.56 118.61,120.56 46.08,0 88.47,-24.31 103.05,-59.3 0.39,-0.78 0.39,-1.56 0,-2.33 -0.39,-0.78 -0.97,-1.36 -1.75,-1.56l-46.08 -15.16c-1.36,-0.39 -2.72,0 -3.3,1.16 -9.72,15.75 -31.5,26.84 -52.89,26.84 -28.58,0 -50.36,-18.08 -57.36,-47.64l169.55 0c1.56,0 2.72,-1.17 2.92,-2.53l0.38 -3.5c0.2,-2.72 0.78,-9.91 0.78,-16.14 0,-32.86 -11.66,-62.42 -32.66,-83.41l0 0zm-140.58 59.5c7.78,-25.86 28.78,-41.8 55.42,-41.8 27.8,0 49.77,16.34 56.78,41.8l-112.19 0z"/>
    </g>
    <g>
     <path class="fil2" d="M7842.96 187.26c-0.78,-0.58 -1.75,-0.58 -2.72,-0.39l-52.11 19.06c-1.17,0.39 -1.95,1.56 -1.95,2.72l0 80.69c-18.28,-16.52 -42.19,-25.66 -68.25,-25.66 -63.97,0 -110.44,49.58 -110.44,118.02 0,68.44 46.47,118.02 110.44,118.02 27.61,0 52.89,-10.11 71.55,-28.39l9.72 18.67c0.59,0.97 1.56,1.56 2.53,1.56l39.28 0c1.55,0 2.92,-1.36 2.92,-2.92l0 -299.05c0.19,-0.97 -0.2,-1.95 -0.97,-2.33l0 0zm-116.28 257.63c-35.78,0 -61.64,-26.64 -61.64,-63.19 0,-36.55 25.86,-63.19 61.64,-63.19 35.58,0 61.25,26.64 61.25,63.19 0,36.55 -25.67,63.19 -61.25,63.19z"/>
    </g>
    <path class="fil2" d="M7586.3 487.67c-0.58,-0.97 -1.95,-1.17 -2.92,-0.78 -28.58,15.75 -61.25,24.69 -95.66,24.69l0 0 0 0c-34.61,0 -67.08,-8.94 -95.66,-24.69 -0.97,-0.59 -2.33,-0.2 -2.92,0.78l-26.25 38.5c-0.78,1.17 -0.39,2.53 0.78,3.3 36.75,21.19 79.14,33.25 124.05,33.25 0,0 0,0 0,0 0,0 0,0 0,0 44.92,0 87.3,-12.06 124.05,-33.25 1.17,-0.59 1.56,-2.14 0.78,-3.3l-26.25 -38.5z"/>
    <g>
     <path class="fil2" d="M7250.11 263.68c-70,0 -118.99,48.61 -118.99,118.02 -0.2,69.42 48.8,118.02 118.99,118.02 70,0 119,-48.61 119,-118.02 0,-69.61 -49,-118.02 -119,-118.02l0 0zm0 183.74c-35.78,0 -61.64,-27.61 -61.64,-65.72 0,-38.11 25.86,-65.72 61.64,-65.72 35.78,0 61.64,27.61 61.64,65.72 0,38.11 -26.06,65.72 -61.64,65.72z"/>
    </g>
   </g>
  </g>
 </g>
</svg>
