<?xml version="1.0" encoding="UTF-8"?>
<!DOCTYPE svg PUBLIC "-//W3C//DTD SVG 1.1//EN" "http://www.w3.org/Graphics/SVG/1.1/DTD/svg11.dtd">
<!-- Creator: CorelDRAW 2021 (64-Bit) -->
<svg xmlns="http://www.w3.org/2000/svg" xml:space="preserve" width="208.422mm" height="208.422mm" version="1.1" style="shape-rendering:geometricPrecision; text-rendering:geometricPrecision; image-rendering:optimizeQuality; fill-rule:evenodd; clip-rule:evenodd"
viewBox="0 0 13212.66 13212.66"
 xmlns:xlink="http://www.w3.org/1999/xlink"
 xmlns:xodm="http://www.corel.com/coreldraw/odm/2003">
 <defs>
  <style type="text/css">
   <![CDATA[
    .fil0 {fill:#848688}
    .fil1 {fill:#FEFEFE;fill-rule:nonzero}
   ]]>
  </style>
 </defs>
 <g id="Capa_x0020_1">
  <metadata id="CorelCorpID_0Corel-Layer"/>
  <path class="fil0" d="M6606.33 13212.66c3648.57,0 6606.33,-2957.75 6606.33,-6606.33 0,-3648.57 -2957.75,-6606.33 -6606.33,-6606.33 -3648.57,0 -6606.33,2957.75 -6606.33,6606.33 0,3648.57 2957.75,6606.33 6606.33,6606.33z"/>
  <path class="fil1" d="M9812.89 8085.02c-175.78,-89.49 -1048.32,-517.78 -1211.32,-575.3 -163,-60.72 -281.26,-89.49 -399.51,89.49 -118.26,178.98 -457.04,575.3 -562.52,696.76 -102.27,118.25 -207.75,134.24 -383.53,44.75 -1041.93,-520.96 -1725.9,-930.07 -2413.06,-2109.44 -182.18,-313.22 182.17,-290.84 520.96,-968.42 57.53,-118.25 28.77,-220.53 -15.98,-310.02 -44.75,-89.49 -399.52,-962.03 -546.54,-1316.8 -143.83,-345.19 -290.84,-297.24 -399.51,-303.63 -102.27,-6.4 -220.53,-6.4 -338.79,-6.4 -118.26,0 -310.03,44.75 -473.03,220.53 -163,178.98 -620.05,607.26 -620.05,1479.8 0,872.54 636.02,1716.32 722.32,1834.57 89.49,118.26 1249.68,1908.08 3029.91,2678.34 1125.03,485.81 1566.1,527.36 2128.62,444.26 341.98,-51.13 1048.32,-428.28 1195.35,-843.77 147.02,-415.5 147.02,-770.27 102.27,-843.77 -41.55,-79.91 -159.81,-124.64 -335.59,-210.95l0 -0.01z"/>
 </g>
</svg>
