<?xml version="1.0" encoding="UTF-8"?>
<!DOCTYPE svg PUBLIC "-//W3C//DTD SVG 1.1//EN" "http://www.w3.org/Graphics/SVG/1.1/DTD/svg11.dtd">
<!-- Creator: CorelDRAW 2021 (64-Bit) -->
<svg xmlns="http://www.w3.org/2000/svg" xml:space="preserve" width="210mm" height="210mm" version="1.1" style="shape-rendering:geometricPrecision; text-rendering:geometricPrecision; image-rendering:optimizeQuality; fill-rule:evenodd; clip-rule:evenodd"
viewBox="0 0 24463.03 24463.03"
 xmlns:xlink="http://www.w3.org/1999/xlink"
 xmlns:xodm="http://www.corel.com/coreldraw/odm/2003">
 <defs>
  <style type="text/css">
   <![CDATA[
    .fil0 {fill:#848688;fill-rule:nonzero}
   ]]>
  </style>
 </defs>
 <g id="Capa_x0020_1">
  <metadata id="CorelCorpID_0Corel-Layer"/>
  <path class="fil0" d="M20799.04 3554.78c-2287.95,-2293.41 -5334.91,-3554.78 -8572.99,-3554.78 -6683.65,0 -12122.31,5438.66 -12122.31,12122.31 0,2135.05 556.98,4220.97 1616.31,6061.16l-1720.05 6279.57 6427.01 -1687.3c1769.2,966.51 3762.29,1474.34 5793.59,1474.34l5.45 0c6678.19,0 12236.98,-5438.66 12236.98,-12122.31 0,-3238.08 -1376.05,-6279.58 -3663.99,-8572.99zm-8572.99 18653.06c-1812.89,0 -3587.55,-485.99 -5132.87,-1403.35l-365.85 -218.42 -3811.43 999.27 1015.66 -3718.59 -240.26 -382.24c-1010.2,-1605.39 -1539.87,-3456.5 -1539.87,-5362.22 0,-5553.33 4521.29,-10074.62 10080.09,-10074.62 2692.03,0 5220.24,1048.42 7120.49,2954.13 1900.25,1905.72 3068.81,4433.92 3063.34,7125.95 0,5558.79 -4635.97,10080.09 -10189.3,10080.09zm5526.02 -7546.4c-300.32,-152.89 -1791.04,-884.61 -2069.53,-982.89 -278.48,-103.75 -480.52,-152.89 -682.57,152.89 -202.04,305.79 -780.85,982.89 -961.05,1190.39 -174.74,202.04 -354.94,229.35 -655.26,76.45 -1780.13,-890.06 -2948.67,-1589 -4122.67,-3603.93 -311.25,-535.13 311.25,-496.9 890.06,-1654.53 98.29,-202.04 49.15,-376.78 -27.31,-529.67 -76.45,-152.89 -682.57,-1643.61 -933.74,-2249.73 -245.73,-589.73 -496.9,-507.83 -682.57,-518.74 -174.74,-10.93 -376.78,-10.93 -578.82,-10.93 -202.04,0 -529.67,76.45 -808.15,376.78 -278.48,305.79 -1059.34,1037.5 -1059.34,2528.21 0,1490.72 1086.64,2932.29 1234.08,3134.33 152.89,202.04 2135.05,3259.92 5176.55,4575.9 1922.1,830 2675.65,900.99 3636.7,759.01 584.27,-87.37 1791.04,-731.71 2042.23,-1441.57 251.19,-709.87 251.19,-1315.98 174.74,-1441.57 -70.99,-136.52 -273.03,-212.96 -573.36,-360.4l0 -0.01z"/>
 </g>
</svg>
